<?xml version="1.0" encoding="UTF-8"?>
<!-- Generated by Pixelmator Pro 3.4.3 -->
<svg width="1024" height="1024" viewBox="0 0 1024 1024" xmlns="http://www.w3.org/2000/svg">
    <path id="Rounded-Rectangle" fill="#f5f5f5" fill-rule="evenodd" stroke="none" d="M 284.363739 974.116699 C 267.312378 973.95343 251.620117 962.812195 246.453598 945.622559 L 51.58445 297.272949 C 45.225666 276.116516 57.220993 253.811401 78.377419 247.452637 L 425.346161 143.16748 C 423.756958 165.361633 421.721313 190.611877 419.230927 218.970215 C 413.680756 282.170349 401.775909 386.636353 383.51413 532.372559 L 379.754364 561.913574 C 369.728271 644.628784 361.671722 704.605469 355.584442 741.845215 C 352.003693 762.971619 346.63266 789.110718 339.471161 820.263184 C 330.519287 857.861023 326.043427 882.388794 326.043427 893.847168 C 326.043427 907.095947 331.503021 918.733215 342.424286 928.759277 C 353.345551 938.7854 366.326569 943.79834 381.365692 943.79834 C 385.948334 943.79834 390.318329 943.496155 394.480927 942.897949 L 296.273895 972.415527 C 292.307068 973.607849 288.298676 974.154419 284.363739 974.116699 Z M 414.959442 936.743652 C 418.182587 935.155884 421.218109 933.301086 424.064911 931.177246 C 435.344269 922.762512 441.700958 911.392822 443.13327 897.069824 C 444.207489 887.043762 445.102661 874.511353 445.818817 859.472168 L 447.967255 820.800293 C 455.128754 801.106201 467.570709 777.11554 485.29538 748.827637 C 503.02005 720.539795 525.131836 689.566772 551.629395 655.907715 C 556.284363 698.160522 571.502319 742.293579 597.283691 788.306152 C 613.479736 817.21167 631.265625 843.076904 650.641113 865.905762 L 414.959442 936.743652 Z M 779.102051 827.294434 C 760.078003 815.290405 740.739136 800.416382 721.086426 782.665527 C 693.335632 757.600342 669.524048 727.343445 649.650879 691.894043 C 629.77771 656.444702 619.484192 617.952148 618.768066 576.415527 C 634.165283 551.708435 650.725037 529.508057 668.449707 509.813965 C 686.174377 490.119934 707.032898 470.605042 731.023926 451.269043 C 740.691956 443.391418 751.16449 435.692932 762.443848 428.17334 C 773.723206 420.653748 780.617004 415.99884 783.123535 414.208496 C 807.472595 398.095154 825.197021 384.758057 836.297363 374.194824 C 847.397705 363.631592 852.947754 352.082886 852.947754 339.550293 C 852.947754 337.05188 852.816284 334.623962 852.555176 332.265137 L 971.414551 727.726074 C 977.773315 748.882507 965.778015 771.187622 944.621582 777.546387 L 779.102051 827.294434 Z M 463.543427 650.536621 C 467.482239 612.938843 473.390381 561.734863 481.268036 496.92334 C 499.171753 348.680603 514.210693 236.783691 526.385254 161.22998 C 528.533691 149.771606 532.293457 133.837524 537.664551 113.427246 C 538.104614 111.930908 538.530762 110.464417 538.943848 109.024902 L 726.727051 52.585449 C 747.883484 46.226685 770.188599 58.221985 776.547363 79.378418 L 846.816895 313.17334 C 844.389404 308.60022 841.240845 304.413391 837.371582 300.61084 C 826.987427 290.405701 813.022705 285.302246 795.477051 285.302246 C 760.743835 285.302246 714.641357 316.633362 657.17041 379.296387 C 599.699463 441.959412 535.158325 532.372131 463.543427 650.536621 Z"/>
</svg>
